REM DIRINDEX 1\2,1\3
REM DIRNAME cjc102,folder01,folder02
TITLE ""
FILE "CD1Track32.mp3" MP3
  TRACK 01 AUDIO
    TITLE "0:"
    INDEX 01 00:00:00
  TRACK 02 AUDIO
    TITLE "2:cjc102_1491"
    INDEX 01 00:00:25
  TRACK 03 AUDIO
    TITLE "0:"
    INDEX 01 00:01:17
  TRACK 04 AUDIO
    TITLE "3:cjc102_1492"
    INDEX 01 00:01:24
  TRACK 05 AUDIO
    TITLE "0:"
    INDEX 01 00:02:55
  TRACK 06 AUDIO
    TITLE "3:cjc102_1493"
    INDEX 01 00:03:37
  TRACK 07 AUDIO
    TITLE "0:"
    INDEX 01 00:07:13
  TRACK 08 AUDIO
    TITLE "2:cjc102_1494"
    INDEX 01 00:07:17
  TRACK 09 AUDIO
    TITLE "0:"
    INDEX 01 00:08:24
  TRACK 10 AUDIO
    TITLE "3:cjc102_1495"
    INDEX 01 00:09:51
  TRACK 11 AUDIO
    TITLE "0:"
    INDEX 01 00:10:65
  TRACK 12 AUDIO
    TITLE "2:cjc102_1496"
    INDEX 01 00:10:74
  TRACK 13 AUDIO
    TITLE "0:"
    INDEX 01 00:12:07
  TRACK 14 AUDIO
    TITLE "3:cjc102_1497"
    INDEX 01 00:12:40
  TRACK 15 AUDIO
    TITLE "0:"
    INDEX 01 00:13:14
  TRACK 16 AUDIO
    TITLE "2:cjc102_1498"
    INDEX 01 00:13:22
  TRACK 17 AUDIO
    TITLE "0:"
    INDEX 01 00:14:29
  TRACK 18 AUDIO
    TITLE "3:cjc102_1499"
    INDEX 01 00:14:62
  TRACK 19 AUDIO
    TITLE "0:"
    INDEX 01 00:15:40
  TRACK 20 AUDIO
    TITLE "2:cjc102_1500"
    INDEX 01 00:15:42
  TRACK 21 AUDIO
    TITLE "0:"
    INDEX 01 00:16:57
  TRACK 22 AUDIO
    TITLE "3:cjc102_1501"
    INDEX 01 00:17:23
  TRACK 23 AUDIO
    TITLE "0:"
    INDEX 01 00:18:19
  TRACK 24 AUDIO
    TITLE "2:cjc102_1502"
    INDEX 01 00:18:48
  TRACK 25 AUDIO
    TITLE "0:"
    INDEX 01 00:19:62
  TRACK 26 AUDIO
    TITLE "3:cjc102_1503"
    INDEX 01 00:20:32
  TRACK 27 AUDIO
    TITLE "0:"
    INDEX 01 00:21:11
  TRACK 28 AUDIO
    TITLE "2:cjc102_1504"
    INDEX 01 00:21:33
  TRACK 29 AUDIO
    TITLE "0:"
    INDEX 01 00:22:50
  TRACK 30 AUDIO
    TITLE "3:cjc102_1505"
    INDEX 01 00:23:08
  TRACK 31 AUDIO
    TITLE "0:"
    INDEX 01 00:23:71
  TRACK 32 AUDIO
    TITLE "2:cjc102_1506"
    INDEX 01 00:24:02
  TRACK 33 AUDIO
    TITLE "0:"
    INDEX 01 00:25:11
  TRACK 34 AUDIO
    TITLE "3:cjc102_1507"
    INDEX 01 00:25:50
  TRACK 35 AUDIO
    TITLE "0:"
    INDEX 01 00:26:40
  TRACK 36 AUDIO
    TITLE "2:cjc102_1508"
    INDEX 01 00:26:44
  TRACK 37 AUDIO
    TITLE "0:"
    INDEX 01 00:27:57
  TRACK 38 AUDIO
    TITLE "3:cjc102_1509"
    INDEX 01 00:28:64
  TRACK 39 AUDIO
    TITLE "0:"
    INDEX 01 00:29:48
  TRACK 40 AUDIO
    TITLE "2:cjc102_1510"
    INDEX 01 00:29:58
  TRACK 41 AUDIO
    TITLE "0:"
    INDEX 01 00:31:04
  TRACK 42 AUDIO
    TITLE "3:cjc102_1511"
    INDEX 01 00:31:67
  TRACK 43 AUDIO
    TITLE "0:"
    INDEX 01 00:32:54
  TRACK 44 AUDIO
    TITLE "2:cjc102_1512"
    INDEX 01 00:32:60
  TRACK 45 AUDIO
    TITLE "0:"
    INDEX 01 00:33:62
  TRACK 46 AUDIO
    TITLE "3:cjc102_1513"
    INDEX 01 00:34:34
  TRACK 47 AUDIO
    TITLE "0:"
    INDEX 01 00:35:27
  TRACK 48 AUDIO
    TITLE "2:cjc102_1514"
    INDEX 01 00:35:31
  TRACK 49 AUDIO
    TITLE "0:"
    INDEX 01 00:36:40
  TRACK 50 AUDIO
    TITLE "3:cjc102_1515"
    INDEX 01 00:37:03
  TRACK 51 AUDIO
    TITLE "0:"
    INDEX 01 00:38:02
  TRACK 52 AUDIO
    TITLE "2:cjc102_1516"
    INDEX 01 00:38:04
  TRACK 53 AUDIO
    TITLE "0:"
    INDEX 01 00:39:05
  TRACK 54 AUDIO
    TITLE "3:cjc102_1517"
    INDEX 01 00:39:27
  TRACK 55 AUDIO
    TITLE "0:"
    INDEX 01 00:40:38
  TRACK 56 AUDIO
    TITLE "2:cjc102_1518"
    INDEX 01 00:40:44
  TRACK 57 AUDIO
    TITLE "0:"
    INDEX 01 00:41:51
  TRACK 58 AUDIO
    TITLE "3:cjc102_1519"
    INDEX 01 00:42:08
  TRACK 59 AUDIO
    TITLE "0:"
    INDEX 01 00:43:29
  TRACK 60 AUDIO
    TITLE "2:cjc102_1520"
    INDEX 01 00:43:37
  TRACK 61 AUDIO
    TITLE "0:"
    INDEX 01 00:44:40
  TRACK 62 AUDIO
    TITLE "3:cjc102_1521"
    INDEX 01 00:44:44
  TRACK 63 AUDIO
    TITLE "0:"
    INDEX 01 00:45:59
  TRACK 64 AUDIO
    TITLE "2:cjc102_1522"
    INDEX 01 00:46:33
  TRACK 65 AUDIO
    TITLE "0:"
    INDEX 01 00:47:36
  TRACK 66 AUDIO
    TITLE "3:cjc102_1523"
    INDEX 01 00:47:50
  TRACK 67 AUDIO
    TITLE "0:"
    INDEX 01 00:48:57
  TRACK 68 AUDIO
    TITLE "2:cjc102_1524"
    INDEX 01 00:49:14
  TRACK 69 AUDIO
    TITLE "0:"
    INDEX 01 00:50:17
  TRACK 70 AUDIO
    TITLE "3:cjc102_1525"
    INDEX 01 00:51:07
  TRACK 71 AUDIO
    TITLE "0:"
    INDEX 01 00:52:16
  TRACK 72 AUDIO
    TITLE "2:cjc102_1526"
    INDEX 01 00:52:18
  TRACK 73 AUDIO
    TITLE "0:"
    INDEX 01 00:53:25
  TRACK 74 AUDIO
    TITLE "3:cjc102_1527"
    INDEX 01 00:54:01
  TRACK 75 AUDIO
    TITLE "0:"
    INDEX 01 00:55:20
  TRACK 76 AUDIO
    TITLE "2:cjc102_1528"
    INDEX 01 00:55:22
  TRACK 77 AUDIO
    TITLE "0:"
    INDEX 01 00:56:33
  TRACK 78 AUDIO
    TITLE "2:cjc102_1529"
    INDEX 01 00:57:31
  TRACK 79 AUDIO
    TITLE "0:"
    INDEX 01 00:58:44
  TRACK 80 AUDIO
    TITLE "3:cjc102_1530"
    INDEX 01 00:59:26
  TRACK 81 AUDIO
    TITLE "0:"
    INDEX 01 01:00:49
  TRACK 82 AUDIO
    TITLE "2:cjc102_1531"
    INDEX 01 01:00:55
  TRACK 83 AUDIO
    TITLE "0:"
    INDEX 01 01:01:64
  TRACK 84 AUDIO
    TITLE "2:cjc102_1532"
    INDEX 01 01:02:67
  TRACK 85 AUDIO
    TITLE "0:"
    INDEX 01 01:04:09
  TRACK 86 AUDIO
    TITLE "3:cjc102_1533"
    INDEX 01 01:04:15
  TRACK 87 AUDIO
    TITLE "0:"
    INDEX 01 01:05:38
  TRACK 88 AUDIO
    TITLE "2:cjc102_1534"
    INDEX 01 01:06:18
  TRACK 89 AUDIO
    TITLE "0:"
    INDEX 01 01:07:15
  TRACK 90 AUDIO
    TITLE "2:cjc102_1535"
    INDEX 01 01:07:70
  TRACK 91 AUDIO
    TITLE "0:"
    INDEX 01 01:09:05
  TRACK 92 AUDIO
    TITLE "3:cjc102_1536"
    INDEX 01 01:09:38
  TRACK 93 AUDIO
    TITLE "0:"
    INDEX 01 01:10:47
  TRACK 94 AUDIO
    TITLE "2:cjc102_1537"
    INDEX 01 01:11:02
  TRACK 95 AUDIO
    TITLE "0:"
    INDEX 01 01:11:54
  TRACK 96 AUDIO
    TITLE "2:cjc102_1538"
    INDEX 01 01:12:50
  TRACK 97 AUDIO
    TITLE "0:"
    INDEX 01 01:13:55
  TRACK 98 AUDIO
    TITLE "3:cjc102_1539"
    INDEX 01 01:14:19
  TRACK 99 AUDIO
    TITLE "0:"
    INDEX 01 01:15:37
  TRACK 100 AUDIO
    TITLE "2:cjc102_1540"
    INDEX 01 01:15:39
  TRACK 101 AUDIO
    TITLE "0:"
    INDEX 01 01:16:38
  TRACK 102 AUDIO
    TITLE "2:cjc102_1541"
    INDEX 01 01:17:04
  TRACK 103 AUDIO
    TITLE "0:"
    INDEX 01 01:18:21
  TRACK 104 AUDIO
    TITLE "3:cjc102_1542"
    INDEX 01 01:18:56
  TRACK 105 AUDIO
    TITLE "0:"
    INDEX 01 01:20:02
  TRACK 106 AUDIO
    TITLE "2:cjc102_1543"
    INDEX 01 01:20:22
  TRACK 107 AUDIO
    TITLE "0:"
    INDEX 01 01:21:25
  TRACK 108 AUDIO
    TITLE "2:cjc102_1544"
    INDEX 01 01:21:69
  TRACK 109 AUDIO
    TITLE "0:"
    INDEX 01 01:23:16
  TRACK 110 AUDIO
    TITLE "3:cjc102_1545"
    INDEX 01 01:23:38
  TRACK 111 AUDIO
    TITLE "0:"
    INDEX 01 01:24:65
  TRACK 112 AUDIO
    TITLE "2:cjc102_1546"
    INDEX 01 01:25:09
  TRACK 113 AUDIO
    TITLE "0:"
    INDEX 01 01:27:20
  TRACK 114 AUDIO
    TITLE "3:cjc102_1547"
    INDEX 01 01:27:48
  TRACK 115 AUDIO
    TITLE "0:"
    INDEX 01 01:29:03
  TRACK 116 AUDIO
    TITLE "2:cjc102_1548"
    INDEX 01 01:29:31
  TRACK 117 AUDIO
    TITLE "0:"
    INDEX 01 01:32:23
  TRACK 118 AUDIO
    TITLE "3:cjc102_1549"
    INDEX 01 01:32:74
  TRACK 119 AUDIO
    TITLE "0:"
    INDEX 01 01:34:20
  TRACK 120 AUDIO
    TITLE "2:cjc102_1550"
    INDEX 01 01:34:42
  TRACK 121 AUDIO
    TITLE "0:"
    INDEX 01 01:38:20
